<?xml version="1.0" encoding="utf-8"?>
<svg viewBox="0 0 48 48" width="96px" height="96px" xmlns="http://www.w3.org/2000/svg">
  <path fill="#fe3332" fill-rule="evenodd" d="M 44 11 C 44.002 10.409 42.591 9 42 9 C 34.889 9 13.111 9 6 9 C 5 9 3.99 10.409 4 11 C 4.078 15.722 4.08 26.108 4.157 26.102 L 44.006 26.066 C 44.025 26.414 43.987 15.756 44 11 Z" clip-rule="evenodd"/>
  <path fill="#fe3332" fill-rule="evenodd" d="M 43.973 25.775 L 4.096 25.882 C 4.07 25.882 4.136 36.306 3.964 40.991 C 3.964 42.142 4.756 43 5.965 43 C 13.082 43 34.88 43 41.998 43 C 42.589 43 44.009 42.498 44 40.991 C 43.953 33.5 44.185 25.787 43.973 25.775 Z" clip-rule="evenodd" style=""/>
  <path fill="#fafafa" fill-rule="evenodd" d="M20.534 26c.984.325 1.687.85 2.105 1.557.433.732.65 1.55.65 2.457 0 1.582-.519 2.826-1.556 3.733-1.037.906-2.363 1.36-3.977 1.36-1.582 0-2.892-.427-3.93-1.282-1.038-.855-1.536-2.014-1.497-3.476l.036-.072h2.242c0 .914.28 1.642.841 2.182.56.541 1.33.811 2.308.811.994 0 1.773-.27 2.337-.811.564-.541.847-1.34.847-2.397 0-1.073-.25-1.864-.751-2.373-.501-.509-1.292-.763-2.373-.763h-2.051V26H20.534zM31.637 26H33.986000000000004V34.856H31.637z" clip-rule="evenodd"/>
  <path fill="#e0e0e0" fill-rule="evenodd" d="M14.727 22.036h-2.254l-.024-.072c-.04-1.312.435-2.427 1.425-3.345.99-.918 2.284-1.377 3.882-1.377 1.606 0 2.886.427 3.84 1.282.954.855 1.431 2.073 1.431 3.655 0 .716-.217 1.429-.65 2.141-.433.712-1.083 1.254-1.95 1.628L20.534 26h-4.77v-.911h2.051c1.042 0 1.779-.26 2.212-.781.433-.521.65-1.246.65-2.176 0-.994-.246-1.749-.739-2.266-.493-.517-1.22-.775-2.182-.775-.914 0-1.648.268-2.2.805C15.022 20.414 14.746 21.098 14.727 22.036zM33.986 26L31.637 26 31.637 19.782 28.083 19.83 28.083 18.136 33.986 17.492z" clip-rule="evenodd"/>
  <ellipse style="fill: rgb(0, 0, 0); stroke: rgb(0, 0, 0); paint-order: fill;" cx="13.49" cy="9.475" rx="1.855" ry="4.056"/>
  <ellipse style="fill: rgb(0, 0, 0); stroke: rgb(0, 0, 0); paint-order: fill;" cx="13.49" cy="9.475" rx="1.855" ry="4.056" transform="matrix(1, 0, 0, 1, 18.851803, -0.547893)"/>
</svg>
